<svg width="37" height="37" viewBox="0 0 37 37" fill="none" xmlns="http://www.w3.org/2000/svg">
<path d="M30.0625 4.625H26.5938V3.46875C26.5938 3.16209 26.4719 2.868 26.2551 2.65116C26.0383 2.43432 25.7442 2.3125 25.4375 2.3125C25.1308 2.3125 24.8367 2.43432 24.6199 2.65116C24.4031 2.868 24.2812 3.16209 24.2812 3.46875V4.625H12.7188V3.46875C12.7188 3.16209 12.5969 2.868 12.3801 2.65116C12.1633 2.43432 11.8692 2.3125 11.5625 2.3125C11.2558 2.3125 10.9617 2.43432 10.7449 2.65116C10.5281 2.868 10.4062 3.16209 10.4062 3.46875V4.625H6.9375C6.32419 4.625 5.73599 4.86864 5.30232 5.30232C4.86864 5.73599 4.625 6.32419 4.625 6.9375V30.0625C4.625 30.6758 4.86864 31.264 5.30232 31.6977C5.73599 32.1314 6.32419 32.375 6.9375 32.375H30.0625C30.6758 32.375 31.264 32.1314 31.6977 31.6977C32.1314 31.264 32.375 30.6758 32.375 30.0625V6.9375C32.375 6.32419 32.1314 5.73599 31.6977 5.30232C31.264 4.86864 30.6758 4.625 30.0625 4.625ZM12.1406 26.5938C11.7976 26.5938 11.4623 26.492 11.1771 26.3015C10.8918 26.1109 10.6695 25.84 10.5383 25.5231C10.407 25.2062 10.3727 24.8575 10.4396 24.521C10.5065 24.1846 10.6717 23.8755 10.9142 23.633C11.1568 23.3904 11.4658 23.2252 11.8023 23.1583C12.1387 23.0914 12.4874 23.1258 12.8043 23.257C13.1213 23.3883 13.3921 23.6106 13.5827 23.8958C13.7733 24.181 13.875 24.5163 13.875 24.8594C13.875 25.3194 13.6923 25.7605 13.367 26.0858C13.0418 26.411 12.6006 26.5938 12.1406 26.5938ZM18.5 26.5938C18.157 26.5938 17.8216 26.492 17.5364 26.3015C17.2512 26.1109 17.0289 25.84 16.8976 25.5231C16.7664 25.2062 16.732 24.8575 16.799 24.521C16.8659 24.1846 17.0311 23.8755 17.2736 23.633C17.5162 23.3904 17.8252 23.2252 18.1616 23.1583C18.4981 23.0914 18.8468 23.1258 19.1637 23.257C19.4806 23.3883 19.7515 23.6106 19.9421 23.8958C20.1327 24.181 20.2344 24.5163 20.2344 24.8594C20.2344 25.3194 20.0516 25.7605 19.7264 26.0858C19.4011 26.411 18.96 26.5938 18.5 26.5938ZM18.5 20.8125C18.157 20.8125 17.8216 20.7108 17.5364 20.5202C17.2512 20.3296 17.0289 20.0588 16.8976 19.7418C16.7664 19.4249 16.732 19.0762 16.799 18.7398C16.8659 18.4033 17.0311 18.0943 17.2736 17.8517C17.5162 17.6092 17.8252 17.444 18.1616 17.3771C18.4981 17.3102 18.8468 17.3445 19.1637 17.4758C19.4806 17.607 19.7515 17.8293 19.9421 18.1146C20.1327 18.3998 20.2344 18.7351 20.2344 19.0781C20.2344 19.5381 20.0516 19.9793 19.7264 20.3045C19.4011 20.6298 18.96 20.8125 18.5 20.8125ZM24.8594 26.5938C24.5163 26.5938 24.181 26.492 23.8958 26.3015C23.6106 26.1109 23.3883 25.84 23.257 25.5231C23.1258 25.2062 23.0914 24.8575 23.1583 24.521C23.2252 24.1846 23.3904 23.8755 23.633 23.633C23.8755 23.3904 24.1846 23.2252 24.521 23.1583C24.8575 23.0914 25.2062 23.1258 25.5231 23.257C25.84 23.3883 26.1109 23.6106 26.3015 23.8958C26.492 24.181 26.5938 24.5163 26.5938 24.8594C26.5938 25.3194 26.411 25.7605 26.0858 26.0858C25.7605 26.411 25.3194 26.5938 24.8594 26.5938ZM24.8594 20.8125C24.5163 20.8125 24.181 20.7108 23.8958 20.5202C23.6106 20.3296 23.3883 20.0588 23.257 19.7418C23.1258 19.4249 23.0914 19.0762 23.1583 18.7398C23.2252 18.4033 23.3904 18.0943 23.633 17.8517C23.8755 17.6092 24.1846 17.444 24.521 17.3771C24.8575 17.3102 25.2062 17.3445 25.5231 17.4758C25.84 17.607 26.1109 17.8293 26.3015 18.1146C26.492 18.3998 26.5938 18.7351 26.5938 19.0781C26.5938 19.5381 26.411 19.9793 26.0858 20.3045C25.7605 20.6298 25.3194 20.8125 24.8594 20.8125ZM30.0625 11.5625H6.9375V6.9375H10.4062V8.09375C10.4062 8.40041 10.5281 8.6945 10.7449 8.91134C10.9617 9.12818 11.2558 9.25 11.5625 9.25C11.8692 9.25 12.1633 9.12818 12.3801 8.91134C12.5969 8.6945 12.7188 8.40041 12.7188 8.09375V6.9375H24.2812V8.09375C24.2812 8.40041 24.4031 8.6945 24.6199 8.91134C24.8367 9.12818 25.1308 9.25 25.4375 9.25C25.7442 9.25 26.0383 9.12818 26.2551 8.91134C26.4719 8.6945 26.5938 8.40041 26.5938 8.09375V6.9375H30.0625V11.5625Z" fill="url(#paint0_linear_8_10814)"/>
<defs>
<linearGradient id="paint0_linear_8_10814" x1="18.5" y1="2.3125" x2="21.133" y2="30.6829" gradientUnits="userSpaceOnUse">
<stop stop-color="#FFB120"/>
<stop offset="0.231792" stop-color="#FACC75"/>
<stop offset="0.5" stop-color="#C48208"/>
<stop offset="1" stop-color="#FFB120"/>
</linearGradient>
</defs>
</svg>
