<svg xmlns="http://www.w3.org/2000/svg">
  <symbol id="logo" width="114" height="36" viewBox="0 0 114 36" fill="none"
    xmlns="http://www.w3.org/2000/svg">
    <mask id="mask0_338_1800" style="mask-type:luminance" maskUnits="userSpaceOnUse" x="0" y="0" width="114" height="36">
      <path d="M113.4 0H0V35.9599H113.4V0Z" fill="white"/>
    </mask>
    <g mask="url(#mask0_338_1800)">
      <path d="M47.7575 30.7818C47.7575 30.4877 47.7325 30.6165 47.6883 30.6933C47.598 30.8452 47.4846 30.9836 47.3654 31.1143C42.4603 36.3769 33.9302 33.9782 31.7717 27.2394C29.1327 19.0014 35.3314 11.7168 42.7083 13.2583C44.4766 13.6292 46.0988 14.5095 47.4365 15.7262L47.7595 16.0203V13.4197H51.9995V33.4669H47.7595V30.7837L47.7575 30.7818ZM37.5648 28.5637C40.6401 31.3911 45.5991 30.2763 47.1905 26.3937C49.0914 21.7577 46.0411 16.1587 40.7324 16.8602C35.3237 17.5733 33.8418 25.1424 37.5648 28.5637Z" fill="white"/>
      <path d="M13.8257 7.29785L11.4423 8.28964C-0.136208 14.7017 6.17201 32.5788 19.1748 30.4338C22.9747 29.8072 26.9688 26.9491 28.2027 23.1799C28.2758 22.9569 28.3142 22.9858 28.2988 23.1933C27.9221 28.3695 24.151 33.1074 19.4189 34.9545C8.78218 39.1061 -1.94872 29.7572 0.411581 18.5516C1.75703 12.1664 7.36946 7.53234 13.8257 7.29785Z" fill="#FBBA0E"/>
      <path d="M28.2149 20.3393C27.9285 23.3435 25.2568 26.1997 22.6448 27.426C22.837 27.0031 23.1041 26.6264 23.2983 26.1978C25.3741 21.5906 22.2257 15.8859 16.9035 16.895C12.748 17.683 11.2738 22.6612 12.8326 26.2497C12.773 26.3092 12.2464 25.8614 12.1657 25.7903C10.6549 24.4564 9.40748 22.5093 8.88276 20.5469C8.80396 20.2528 8.58868 19.4225 8.61559 19.1726C8.63866 18.965 9.1826 17.8887 9.32484 17.6388C10.3262 15.8647 11.8485 14.5712 13.5918 13.8197C17.0112 12.3416 20.9956 13.1508 23.6808 15.7321L23.8903 15.9339V3.81722L28.2149 0V20.3393Z" fill="white"/>
      <path d="M76.9398 6.03906H72.6094V33.467H76.9398V6.03906Z" fill="white"/>
      <path d="M99.2819 15.6873C100.985 13.2136 104.498 12.7389 107.268 13.2924C110.345 13.9075 112.31 15.9487 113.05 18.778C113.251 19.5526 113.334 20.3522 113.334 21.1518V33.4664H109.096L109.1 21.763C109.017 15.1184 99.4876 15.1799 99.0493 21.4362C99.0378 22.9739 99.0359 24.5115 99.0628 26.0473C98.7995 36.559 81.572 36.6513 80.8454 26.299C80.7647 25.1516 80.782 23.7773 80.7628 22.6106C80.7128 19.5449 80.8301 16.4907 80.7647 13.4212H85.0894V25.709C85.0894 25.9742 85.3777 26.9429 85.4891 27.2332C86.8577 30.7467 92.2625 31.208 94.1019 27.9213C94.3768 27.4292 94.8169 26.1664 94.8169 25.6244V13.4212H99.2819V15.6873Z" fill="white"/>
      <path d="M60.3109 6.03906H55.9805V33.5496H60.3109V6.03906Z" fill="white"/>
      <path d="M68.6273 13.4199H64.2969V33.5497H68.6273V13.4199Z" fill="white"/>
      <path d="M66.4915 11.0174C67.983 11.0174 69.1939 9.79688 69.1939 8.2919C69.1939 6.78692 67.9849 5.56641 66.4915 5.56641C64.998 5.56641 63.7891 6.78692 63.7891 8.2919C63.7891 9.79688 64.998 11.0174 66.4915 11.0174Z" fill="white"/>
    </g>
  </symbol>
  <symbol id="chevron" width="16" height="16" viewBox="0 0 16 16" fill="none"
    xmlns="http://www.w3.org/2000/svg">
    <path d="M14 11L8.35355 5.35355C8.15829 5.15829 7.84171 5.15829 7.64645 5.35355L2 11" stroke="white" stroke-width="2" stroke-linecap="round"/>
  </symbol>
  <symbol id="arrow-top" width="14" height="16" viewBox="0 0 14 16" fill="none"
    xmlns="http://www.w3.org/2000/svg">
    <path d="M6.53125 15.0605L6.53125 1.06055M6.53125 1.06055L0.53125 7.06055M6.53125 1.06055L12.5312 7.06055" stroke="#18191B" stroke-width="1.5"/>
  </symbol>
</svg>
